<svg width="24" height="24" viewBox="0 0 24 24" fill="none" xmlns="http://www.w3.org/2000/svg">
<path d="M7.44434 7.55556V6.44444C7.44434 5.2657 7.91259 4.13524 8.74608 3.30175C9.57958 2.46825 10.71 2 11.8888 2C13.0675 2 14.198 2.46825 15.0315 3.30175C15.865 4.13524 16.3332 5.2657 16.3332 6.44444V7.55556M15.2221 14.2222V12M8.55545 14.2222V12" stroke="white" stroke-width="1.5" stroke-linecap="round"/>
<path d="M3 12C3 9.90445 3 8.85778 3.65111 8.20667C4.30222 7.55556 5.34889 7.55556 7.44444 7.55556H16.3333C18.4289 7.55556 19.4756 7.55556 20.1267 8.20667C20.7778 8.85778 20.7778 9.90445 20.7778 12V13.1111C20.7778 17.3011 20.7778 19.3967 19.4756 20.6978C18.1733 21.9989 16.0789 22 11.8889 22C7.69889 22 5.60333 22 4.30222 20.6978C3.00111 19.3956 3 17.3011 3 13.1111V12Z" stroke="white" stroke-width="1.5"/>
</svg>
